g HouseGround3.002
v -0.12593248 -0.06709526 -1.3040658
v -0.12593248 -0.06709546 -0.066863164
v 0.11553182 -0.06709546 -0.066863164
v 0.11553182 -0.06709526 -1.3040658
v -0.14788005 0.0803216 -1.3040658
v -0.14788005 0.080321394 -0.066863164
v -0.14788005 -0.0548127 -0.066863164
v -0.14788005 -0.0548125 -1.3040658
v -1.1834304 0.13089825 -0.117707595
v -1.1834304 -0.10538882 -0.117707595
v 1.1891036 -0.10538882 -0.117707595
v 1.1891036 0.13089825 -0.117707595
v 0.13747922 -0.0548125 -1.3040658
v 0.13747922 -0.0548127 -0.066863164
v 0.13747922 0.080321394 -0.066863164
v 0.13747922 0.0803216 -1.3040658
v 0.11553182 0.09260436 -1.3040658
v 0.11553182 0.09260415 -0.066863164
v -0.12593248 0.09260415 -0.066863164
v -0.12593248 0.09260436 -1.3040658
v 1.2110509 0.13089824 -0.09576021
v 1.2110509 -0.10538882 -0.09576021
v 1.2110509 -0.10538898 0.8435396
v 1.2110509 0.13089809 0.8435396
v 1.1891036 0.13089809 0.8654872
v 1.1891036 -0.10538898 0.8654872
v -1.1834304 -0.10538898 0.8654872
v -1.1834304 0.13089809 0.8654872
v -1.2053778 -0.10538882 -0.09576021
v -1.2053778 0.13089824 -0.09576021
v -1.2053778 0.13089809 0.8435396
v -1.2053778 -0.10538898 0.8435396
v -1.1834304 0.13862395 -0.09576021
v 1.1891036 0.13862395 -0.09576021
v 1.1891036 0.1386238 0.8435396
v -1.1834304 0.1386238 0.8435396
v 0.11553182 0.0803216 -1.3260132
v 0.13747922 0.0803216 -1.3040658
v 0.11553182 0.09260436 -1.3040658
v -0.12593248 0.09260436 -1.3040658
v -0.12593248 0.0803216 -1.3260132
v -0.14788005 0.0803216 -1.3040658
v -0.12593248 -0.054812495 -1.3260132
v 0.11553182 -0.054812495 -1.3260132
v 0.11553182 -0.06709526 -1.3040658
v 0.13747922 -0.0548125 -1.3040658
v 0.13747922 0.0803216 -1.3040658
v 0.11553182 0.0803216 -1.3260132
v -0.12593248 -0.06709526 -1.3040658
v -0.14788005 -0.0548125 -1.3040658
v -0.12593248 0.0803216 -1.3260132
v -0.14788005 0.0803216 -1.3040658
v 0.11553182 0.080321394 -0.0449153
v 0.11553182 0.09260415 -0.066863164
v 0.13747922 0.080321394 -0.066863164
v -0.12593248 0.080321394 -0.0449153
v -0.12593248 0.09260415 -0.066863164
v -0.14788005 0.080321394 -0.066863164
v 0.13747922 -0.0548125 -1.3040658
v 0.11553182 -0.06709526 -1.3040658
v 0.11553182 -0.06709546 -0.066863164
v 0.13747922 -0.0548127 -0.066863164
v 0.13747922 -0.0548127 -0.066863164
v 0.11553182 0.080321394 -0.0449153
v 0.13747922 0.080321394 -0.066863164
v 0.11553182 -0.054812703 -0.0449153
v 0.11553182 -0.06709546 -0.066863164
v -0.12593248 0.080321394 -0.0449153
v -0.12593248 -0.06709546 -0.066863164
v -0.12593248 -0.054812703 -0.0449153
v -0.14788005 0.080321394 -0.066863164
v -0.14788005 -0.0548127 -0.066863164
v 0.13747922 0.080321394 -0.066863164
v 0.11553182 0.09260415 -0.066863164
v 0.11553182 0.09260436 -1.3040658
v 0.13747922 0.0803216 -1.3040658
v -0.12593248 0.09260415 -0.066863164
v -0.14788005 0.080321394 -0.066863164
v -0.14788005 0.0803216 -1.3040658
v -0.12593248 0.09260436 -1.3040658
v -0.14788005 -0.0548127 -0.066863164
v -0.12593248 -0.06709546 -0.066863164
v -0.12593248 -0.06709526 -1.3040658
v -0.14788005 -0.0548125 -1.3040658
v -1.1834304 0.13089825 -0.117707595
v -1.2053778 0.13089824 -0.09576021
v -1.2053778 -0.10538882 -0.09576021
v -1.1834304 -0.10538882 -0.117707595
v -1.1834304 -0.113114536 -0.09576021
v -1.2053778 -0.10538898 0.8435396
v 1.1891036 -0.113114536 -0.09576021
v -1.1834304 -0.11311469 0.8435396
v 1.1891036 -0.10538882 -0.117707595
v -1.1834304 -0.10538898 0.8654872
v -1.2053778 0.13089809 0.8435396
v -1.1834304 0.13089809 0.8654872
v 1.1891036 -0.10538898 0.8654872
v 1.1891036 -0.11311469 0.8435396
v 1.2110509 -0.10538882 -0.09576021
v 1.2110509 0.13089824 -0.09576021
v 1.1891036 0.13089825 -0.117707595
v 1.2110509 -0.10538898 0.8435396
v 1.1891036 0.13089809 0.8654872
v 1.2110509 0.13089809 0.8435396
v -1.1098111 -0.10110057 -0.022140844
v -1.1098111 0.006163465 -0.022140844
v 1.1154842 0.006163465 -0.022140844
v 1.1154842 -0.10110057 -0.022140844
v 1.1154842 -0.1011007 0.76992023
v 1.1154842 0.006163338 0.76992023
v -1.1098111 0.006163338 0.76992023
v -1.1098111 -0.1011007 0.76992023
v 1.1154842 -0.10110057 -0.022140844
v 1.1154842 0.006163465 -0.022140844
v 1.1154842 0.006163338 0.76992023
v 1.1154842 -0.1011007 0.76992023
v 1.0904884 0.031159298 0.0028549607
v -1.0848153 0.031159298 0.0028549607
v -1.0848153 0.031159172 0.74492466
v 1.0904884 0.031159172 0.74492466
v -1.1098111 -0.1011007 0.76992023
v -1.1098111 0.006163338 0.76992023
v -1.1098111 0.006163465 -0.022140844
v -1.1098111 -0.10110057 -0.022140844
v 1.1891036 0.13089809 0.8654872
v 1.1891036 0.1386238 0.8435396
v 1.2110509 0.13089809 0.8435396
v -1.1834304 0.13089809 0.8654872
v 1.1891036 0.13862395 -0.09576021
v 1.2110509 0.13089824 -0.09576021
v 1.1891036 0.13089825 -0.117707595
v -1.1834304 0.1386238 0.8435396
v -1.2053778 0.13089809 0.8435396
v -1.2053778 0.13089824 -0.09576021
v -1.1834304 0.13862395 -0.09576021
v -1.1834304 0.13089825 -0.117707595
v 1.1154842 -0.1011007 0.76992023
v 1.1274983 -0.11311454 -0.034154754
v 1.1154842 -0.10110057 -0.022140844
v 1.1274983 -0.11311468 0.78193414
v -1.1218251 -0.11311454 -0.034154754
v -1.1098111 -0.1011007 0.76992023
v -1.1098111 -0.10110057 -0.022140844
v -1.1218251 -0.11311468 0.78193414
v 1.1081631 0.02383806 0.7625991
v 1.1154842 0.006163338 0.76992023
v 1.1154842 0.006163465 -0.022140844
v 1.1081631 0.023838187 -0.014819724
v -1.1098111 0.006163465 -0.022140844
v -1.10249 0.02383806 0.7625991
v -1.1098111 0.006163338 0.76992023
v -1.10249 0.023838187 -0.014819724
v 1.0904884 0.031159172 0.74492466
v 1.0904884 0.031159298 0.0028549607
v -1.0848153 0.031159172 0.74492466
v -1.0848153 0.031159298 0.0028549607
v -1.1218251 -0.11311468 0.78193414
v -1.1834304 -0.11311469 0.8435396
v 1.1891036 -0.11311469 0.8435396
v 1.1274983 -0.11311468 0.78193414
v -1.1218251 -0.11311454 -0.034154754
v 1.1891036 -0.113114536 -0.09576021
v -1.1834304 -0.113114536 -0.09576021
v 1.1274983 -0.11311454 -0.034154754
vt 0.105773926 0.036743164
vt 0.105773926 0.08117676
vt 0.10620117 0.08117676
vt 0.10620117 0.036743164
vt 0.10571289 0.036743164
vt 0.10571289 0.08117676
vt 0.10571289 0.08117676
vt 0.10571289 0.036743164
vt 0.103759766 0.0793457
vt 0.103759766 0.0793457
vt 0.10827637 0.0793457
vt 0.10827637 0.0793457
vt 0.10626221 0.036743164
vt 0.10626221 0.08117676
vt 0.10626221 0.08117676
vt 0.10626221 0.036743164
vt 0.10620117 0.036743164
vt 0.10620117 0.08117676
vt 0.105773926 0.08117676
vt 0.105773926 0.036743164
vt 0.10827637 0.08013916
vt 0.10827637 0.08013916
vt 0.10827637 0.11383057
vt 0.10827637 0.11383057
vt 0.10827637 0.11462402
vt 0.10827637 0.11462402
vt 0.103759766 0.11462402
vt 0.103759766 0.11462402
vt 0.10369873 0.08013916
vt 0.10369873 0.08013916
vt 0.10369873 0.11383057
vt 0.10369873 0.11383057
vt 0.103759766 0.08013916
vt 0.10827637 0.08013916
vt 0.10827637 0.11383057
vt 0.103759766 0.11383057
vt 0.10620117 0.035949707
vt 0.10626221 0.036743164
vt 0.10620117 0.036743164
vt 0.105773926 0.036743164
vt 0.105773926 0.035949707
vt 0.10571289 0.036743164
vt 0.105773926 0.035949707
vt 0.10620117 0.035949707
vt 0.10620117 0.036743164
vt 0.10626221 0.036743164
vt 0.10626221 0.036743164
vt 0.10620117 0.035949707
vt 0.105773926 0.036743164
vt 0.10571289 0.036743164
vt 0.105773926 0.035949707
vt 0.10571289 0.036743164
vt 0.10620117 0.081970215
vt 0.10620117 0.08117676
vt 0.10626221 0.08117676
vt 0.105773926 0.081970215
vt 0.105773926 0.08117676
vt 0.10571289 0.08117676
vt 0.10626221 0.07611084
vt 0.10620117 0.07611084
vt 0.10620117 0.12054443
vt 0.10626221 0.12054443
vt 0.10626221 0.08117676
vt 0.10620117 0.081970215
vt 0.10626221 0.08117676
vt 0.10620117 0.081970215
vt 0.10620117 0.08117676
vt 0.105773926 0.081970215
vt 0.105773926 0.08117676
vt 0.105773926 0.081970215
vt 0.10571289 0.08117676
vt 0.10571289 0.08117676
vt 0.10626221 0.12054443
vt 0.10620117 0.12054443
vt 0.10620117 0.07611084
vt 0.10626221 0.07611084
vt 0.105773926 0.12054443
vt 0.10571289 0.12054443
vt 0.10571289 0.07611084
vt 0.105773926 0.07611084
vt 0.10571289 0.12054443
vt 0.105773926 0.12054443
vt 0.105773926 0.07611084
vt 0.10571289 0.07611084
vt 0.103759766 0.072387695
vt 0.10369873 0.07421875
vt 0.10369873 0.07421875
vt 0.103759766 0.072387695
vt 0.103759766 0.07421875
vt 0.10369873 0.1541748
vt 0.10827637 0.07421875
vt 0.103759766 0.1541748
vt 0.10827637 0.072387695
vt 0.103759766 0.15600586
vt 0.10369873 0.1541748
vt 0.103759766 0.15600586
vt 0.10827637 0.15600586
vt 0.10827637 0.1541748
vt 0.10827637 0.07421875
vt 0.10827637 0.07421875
vt 0.10827637 0.072387695
vt 0.10827637 0.1541748
vt 0.10827637 0.15600586
vt 0.10827637 0.1541748
vt 0.103881836 0.06311035
vt 0.103881836 0.06311035
vt 0.10809326 0.06311035
vt 0.10809326 0.06311035
vt 0.10809326 0.091552734
vt 0.10809326 0.091552734
vt 0.103881836 0.091552734
vt 0.103881836 0.091552734
vt 0.10809326 0.06311035
vt 0.10809326 0.06311035
vt 0.10809326 0.091552734
vt 0.10809326 0.091552734
vt 0.11444092 0.047729492
vt 0.10406494 0.047729492
vt 0.10406494 0.05126953
vt 0.11444092 0.05126953
vt 0.103881836 0.091552734
vt 0.103881836 0.091552734
vt 0.103881836 0.06311035
vt 0.103881836 0.06311035
vt 0.10827637 0.15600586
vt 0.10827637 0.1541748
vt 0.10827637 0.1541748
vt 0.103759766 0.15600586
vt 0.10827637 0.07421875
vt 0.10827637 0.07421875
vt 0.10827637 0.072387695
vt 0.103759766 0.1541748
vt 0.10369873 0.1541748
vt 0.10369873 0.07421875
vt 0.103759766 0.07421875
vt 0.103759766 0.072387695
vt 0.10809326 0.14941406
vt 0.1081543 0.11004639
vt 0.10809326 0.11047363
vt 0.1081543 0.14978027
vt 0.103881836 0.11004639
vt 0.103881836 0.14941406
vt 0.103881836 0.11047363
vt 0.103881836 0.14978027
vt 0.11444092 0.0513916
vt 0.11450195 0.05142212
vt 0.11450195 0.047668457
vt 0.11444092 0.047698975
vt 0.10394287 0.047668457
vt 0.10394287 0.0513916
vt 0.10394287 0.05142212
vt 0.10394287 0.047698975
vt 0.11437988 0.05130005
vt 0.11437988 0.047790527
vt 0.10406494 0.05130005
vt 0.10406494 0.047790527
vt 0.103881836 0.1116333
vt 0.103759766 0.11383057
vt 0.10827637 0.11383057
vt 0.1081543 0.1116333
vt 0.103881836 0.082336426
vt 0.10827637 0.08013916
vt 0.103759766 0.08013916
vt 0.1081543 0.082336426
vn -0 -1 0
vn -0 -1 0
vn -0 -1 0
vn -0 -1 0
vn -1 0 0
vn -1 0 0
vn -1 0 0
vn -1 0 0
vn -0 0 -1
vn -0 0 -1
vn -0 0 -1
vn -0 0 -1
vn 1 0 0
vn 1 0 0
vn 1 0 0
vn 1 0 0
vn -0 1 0
vn -0 1 0
vn -0 1 0
vn -0 1 0
vn 1 0 0
vn 1 0 0
vn 1 0 0
vn 1 0 0
vn -0 0 1
vn -0 0 1
vn -0 0 1
vn -0 0 1
vn -1 0 0
vn -1 0 0
vn -1 0 0
vn -1 0 0
vn -0 1 0
vn -0 1 0
vn -0 1 0
vn -0 1 0
vn 0.32592773 0.44995117 -0.83154297
vn 0.66308594 0.6064453 -0.43945312
vn 0.31860352 0.8925781 -0.31860352
vn -0.31860352 0.8925781 -0.31860352
vn -0.32592773 0.44995117 -0.83154297
vn -0.66308594 0.6064453 -0.43945312
vn -0.32592773 -0.44995117 -0.83154297
vn 0.32592773 -0.44995117 -0.83154297
vn 0.31860352 -0.8925781 -0.31860352
vn 0.66308594 -0.6064453 -0.43945312
vn 0.66308594 0.6064453 -0.43945312
vn 0.32592773 0.44995117 -0.83154297
vn -0.31860352 -0.8925781 -0.31860352
vn -0.66308594 -0.6064453 -0.43945312
vn -0.32592773 0.44995117 -0.83154297
vn -0.66308594 0.6064453 -0.43945312
vn 0.32592773 0.44995117 0.83154297
vn 0.31860352 0.8925781 0.31860352
vn 0.66308594 0.6064453 0.43945312
vn -0.32592773 0.44995117 0.83154297
vn -0.31860352 0.8925781 0.31860352
vn -0.66308594 0.6064453 0.43945312
vn 0.66308594 -0.6064453 -0.43945312
vn 0.31860352 -0.8925781 -0.31860352
vn 0.31860352 -0.8925781 0.31860352
vn 0.66308594 -0.6064453 0.43945312
vn 0.66308594 -0.6064453 0.43945312
vn 0.32592773 0.44995117 0.83154297
vn 0.66308594 0.6064453 0.43945312
vn 0.32592773 -0.44995117 0.83154297
vn 0.31860352 -0.8925781 0.31860352
vn -0.32592773 0.44995117 0.83154297
vn -0.31860352 -0.8925781 0.31860352
vn -0.32592773 -0.44995117 0.83154297
vn -0.66308594 0.6064453 0.43945312
vn -0.66308594 -0.6064453 0.43945312
vn 0.66308594 0.6064453 0.43945312
vn 0.31860352 0.8925781 0.31860352
vn 0.31860352 0.8925781 -0.31860352
vn 0.66308594 0.6064453 -0.43945312
vn -0.31860352 0.8925781 0.31860352
vn -0.66308594 0.6064453 0.43945312
vn -0.66308594 0.6064453 -0.43945312
vn -0.31860352 0.8925781 -0.31860352
vn -0.66308594 -0.6064453 0.43945312
vn -0.31860352 -0.8925781 0.31860352
vn -0.31860352 -0.8925781 -0.31860352
vn -0.66308594 -0.6064453 -0.43945312
vn -0.4248047 0.6899414 -0.5859375
vn -0.5859375 0.6899414 -0.4248047
vn -0.5859375 -0.6899414 -0.4248047
vn -0.4248047 -0.6899414 -0.5859375
vn -0.16345215 -0.97265625 -0.16345215
vn -0.5859375 -0.6899414 0.4248047
vn 0.16345215 -0.97265625 -0.16345215
vn -0.16345215 -0.97265625 0.16345215
vn 0.4248047 -0.6899414 -0.5859375
vn -0.4248047 -0.6899414 0.5859375
vn -0.5859375 0.6899414 0.4248047
vn -0.4248047 0.6899414 0.5859375
vn 0.4248047 -0.6899414 0.5859375
vn 0.16345215 -0.97265625 0.16345215
vn 0.5859375 -0.6899414 -0.4248047
vn 0.5859375 0.6899414 -0.4248047
vn 0.4248047 0.6899414 -0.5859375
vn 0.5859375 -0.6899414 0.4248047
vn 0.4248047 0.6899414 0.5859375
vn 0.5859375 0.6899414 0.4248047
vn -0 0 1
vn -0 0 1
vn -0 0 1
vn -0 0 1
vn -0 0 -1
vn -0 0 -1
vn -0 0 -1
vn -0 0 -1
vn -1 0 0
vn -1 0 0
vn -1 0 0
vn -1 0 0
vn -0 -1 0
vn -0 -1 0
vn -0 -1 0
vn -0 -1 0
vn 1 0 0
vn 1 0 0
vn 1 0 0
vn 1 0 0
vn 0.4248047 0.6899414 0.5859375
vn 0.21862793 0.9511719 0.21862793
vn 0.5859375 0.6899414 0.4248047
vn -0.4248047 0.6899414 0.5859375
vn 0.21862793 0.9511719 -0.21862793
vn 0.5859375 0.6899414 -0.4248047
vn 0.4248047 0.6899414 -0.5859375
vn -0.21862793 0.9511719 0.21862793
vn -0.5859375 0.6899414 0.4248047
vn -0.5859375 0.6899414 -0.4248047
vn -0.21862793 0.9511719 -0.21862793
vn -0.4248047 0.6899414 -0.5859375
vn -0.40820312 -0.81640625 -0.40820312
vn -0.11004639 -0.98779297 0.11004639
vn -0.40820312 -0.81640625 0.40820312
vn -0.11004639 -0.98779297 -0.11004639
vn 0.11004639 -0.98779297 0.11004639
vn 0.40820312 -0.81640625 -0.40820312
vn 0.40820312 -0.81640625 0.40820312
vn 0.11004639 -0.98779297 -0.11004639
vn -0.4975586 -0.7104492 -0.4975586
vn -0.61035156 -0.5053711 -0.61035156
vn -0.61035156 -0.5053711 0.61035156
vn -0.4975586 -0.7104492 0.4975586
vn 0.61035156 -0.5053711 0.61035156
vn 0.4975586 -0.7104492 -0.4975586
vn 0.61035156 -0.5053711 -0.61035156
vn 0.4975586 -0.7104492 0.4975586
vn -0.19873047 -0.95947266 -0.19873047
vn -0.19873047 -0.95947266 0.19873047
vn 0.19873047 -0.95947266 -0.19873047
vn 0.19873047 -0.95947266 0.19873047
vn 0.11004639 -0.98779297 -0.11004639
vn -0.16345215 -0.97265625 0.16345215
vn 0.16345215 -0.97265625 0.16345215
vn -0.11004639 -0.98779297 -0.11004639
vn 0.11004639 -0.98779297 0.11004639
vn 0.16345215 -0.97265625 -0.16345215
vn -0.16345215 -0.97265625 -0.16345215
vn -0.11004639 -0.98779297 0.11004639
g HouseGround3.002_0
f 3/3/3 2/2/2 1/1/1
f 4/4/4 3/3/3 1/1/1
f 7/7/7 6/6/6 5/5/5
f 8/8/8 7/7/7 5/5/5
f 11/11/11 10/10/10 9/9/9
f 12/12/12 11/11/11 9/9/9
f 15/15/15 14/14/14 13/13/13
f 16/16/16 15/15/15 13/13/13
f 19/19/19 18/18/18 17/17/17
f 20/20/20 19/19/19 17/17/17
f 23/23/23 22/22/22 21/21/21
f 24/24/24 23/23/23 21/21/21
f 27/27/27 26/26/26 25/25/25
f 28/28/28 27/27/27 25/25/25
f 31/31/31 30/30/30 29/29/29
f 32/32/32 31/31/31 29/29/29
f 35/35/35 34/34/34 33/33/33
f 36/36/36 35/35/35 33/33/33
f 39/39/39 38/38/38 37/37/37
f 39/39/39 37/37/37 40/40/40
f 37/37/37 41/41/41 40/40/40
f 42/42/42 40/40/40 41/41/41
f 43/43/43 41/41/41 37/37/37
f 44/44/44 43/43/43 37/37/37
f 43/43/43 44/44/44 45/45/45
f 46/46/46 45/45/45 44/44/44
f 46/46/46 44/44/44 47/47/47
f 44/44/44 48/48/48 47/47/47
f 49/49/49 43/43/43 45/45/45
f 49/49/49 50/50/50 43/43/43
f 51/51/51 43/43/43 50/50/50
f 52/52/52 51/51/51 50/50/50
f 55/55/55 54/54/54 53/53/53
f 56/56/56 53/53/53 54/54/54
f 57/57/57 56/56/56 54/54/54
f 57/57/57 58/58/58 56/56/56
f 61/61/61 60/60/60 59/59/59
f 62/62/62 61/61/61 59/59/59
f 65/65/65 64/64/64 63/63/63
f 64/64/64 66/66/66 63/63/63
f 63/63/63 66/66/66 67/67/67
f 66/66/66 64/64/64 68/68/68
f 67/67/67 66/66/66 69/69/69
f 70/70/70 66/66/66 68/68/68
f 66/66/66 70/70/70 69/69/69
f 70/70/70 68/68/68 71/71/71
f 72/72/72 69/69/69 70/70/70
f 72/72/72 70/70/70 71/71/71
f 75/75/75 74/74/74 73/73/73
f 76/76/76 75/75/75 73/73/73
f 79/79/79 78/78/78 77/77/77
f 80/80/80 79/79/79 77/77/77
f 83/83/83 82/82/82 81/81/81
f 84/84/84 83/83/83 81/81/81
f 87/87/87 86/86/86 85/85/85
f 88/88/88 87/87/87 85/85/85
f 89/89/89 87/87/87 88/88/88
f 90/90/90 87/87/87 89/89/89
f 91/91/91 89/89/89 88/88/88
f 92/92/92 90/90/90 89/89/89
f 93/93/93 91/91/91 88/88/88
f 94/94/94 90/90/90 92/92/92
f 95/95/95 90/90/90 94/94/94
f 96/96/96 95/95/95 94/94/94
f 94/94/94 92/92/92 97/97/97
f 92/92/92 98/98/98 97/97/97
f 99/99/99 91/91/91 93/93/93
f 91/91/91 99/99/99 98/98/98
f 100/100/100 99/99/99 93/93/93
f 101/101/101 100/100/100 93/93/93
f 99/99/99 102/102/102 98/98/98
f 98/98/98 102/102/102 97/97/97
f 97/97/97 102/102/102 103/103/103
f 102/102/102 104/104/104 103/103/103
f 107/107/107 106/106/106 105/105/105
f 108/108/108 107/107/107 105/105/105
f 111/111/111 110/110/110 109/109/109
f 112/112/112 111/111/111 109/109/109
f 115/115/115 114/114/114 113/113/113
f 116/116/116 115/115/115 113/113/113
f 119/119/119 118/118/118 117/117/117
f 120/120/120 119/119/119 117/117/117
f 123/123/123 122/122/122 121/121/121
f 124/124/124 123/123/123 121/121/121
f 127/127/127 126/126/126 125/125/125
f 125/125/125 126/126/126 128/128/128
f 129/129/129 126/126/126 127/127/127
f 130/130/130 129/129/129 127/127/127
f 129/129/129 130/130/130 131/131/131
f 126/126/126 132/132/132 128/128/128
f 132/132/132 133/133/133 128/128/128
f 134/134/134 133/133/133 132/132/132
f 135/135/135 129/129/129 131/131/131
f 135/135/135 134/134/134 132/132/132
f 136/136/136 135/135/135 131/131/131
f 134/134/134 135/135/135 136/136/136
f 139/139/139 138/138/138 137/137/137
f 138/138/138 140/140/140 137/137/137
f 141/141/141 138/138/138 139/139/139
f 137/137/137 140/140/140 142/142/142
f 143/143/143 141/141/141 139/139/139
f 140/140/140 144/144/144 142/142/142
f 144/144/144 141/141/141 143/143/143
f 142/142/142 144/144/144 143/143/143
f 147/147/147 146/146/146 145/145/145
f 148/148/148 147/147/147 145/145/145
f 149/149/149 147/147/147 148/148/148
f 145/145/145 146/146/146 150/150/150
f 146/146/146 151/151/151 150/150/150
f 151/151/151 149/149/149 152/152/152
f 152/152/152 149/149/149 148/148/148
f 150/150/150 151/151/151 152/152/152
f 148/148/148 145/145/145 153/153/153
f 154/154/154 148/148/148 153/153/153
f 152/152/152 148/148/148 154/154/154
f 153/153/153 145/145/145 155/155/155
f 145/145/145 150/150/150 155/155/155
f 156/156/156 152/152/152 154/154/154
f 155/155/155 150/150/150 156/156/156
f 150/150/150 152/152/152 156/156/156
f 159/159/159 158/158/158 157/157/157
f 160/160/160 159/159/159 157/157/157
f 157/157/157 158/158/158 161/161/161
f 162/162/162 159/159/159 160/160/160
f 158/158/158 163/163/163 161/161/161
f 164/164/164 162/162/162 160/160/160
f 161/161/161 163/163/163 164/164/164
f 163/163/163 162/162/162 164/164/164
